<svg width="989" height="870" viewBox="0 0 989 870" fill="none" xmlns="http://www.w3.org/2000/svg">
<path opacity="0.6" fill-rule="evenodd" clip-rule="evenodd" d="M780.436 270.723C906.111 308.716 988.082 369.982 988.082 434.629C988.082 499.077 906.514 560.343 781.644 598.336C810.848 724.448 798.16 824.9 741.565 857.124C728.273 864.683 712.966 868.263 696.048 868.263C640.662 868.263 568.157 829.674 494.847 762.441C421.536 830.072 349.031 869.059 293.645 869.059C276.728 869.059 261.421 865.479 248.33 857.92C191.534 825.696 178.644 725.045 207.646 598.535C81.9709 560.542 0 499.276 0 434.629C0 370.181 81.5681 309.114 206.841 270.922C177.637 144.81 190.326 44.358 246.92 12.1338C260.212 4.57504 275.519 0.994574 292.437 0.994574V0.795663C347.823 0.795663 420.328 39.3852 493.638 106.618C566.949 38.9873 639.454 0 694.84 0V0.199085C711.478 0.227755 726.714 3.80975 739.753 11.3381C796.548 43.5624 809.438 144.213 780.436 270.723ZM694.638 44.3583C652.751 44.4639 591.214 77.4744 525.661 137.649C554.059 166.89 582.256 200.307 609.445 237.107C654.761 241.88 697.861 249.24 737.336 258.788C741.767 238.698 745.392 219.005 747.607 200.307C756.872 124.322 744.989 65.2441 717.598 49.7287C711.355 46.3472 703.903 44.5569 694.638 44.5569V44.3583ZM461.615 137.848C395.958 77.9746 334.127 45.1537 292.437 45.1537V45.3526C283.172 45.3526 275.318 46.9439 269.276 50.5244C242.086 66.2387 230.405 125.316 239.871 201.302C242.288 219.801 245.711 239.096 250.344 258.987C289.819 249.24 332.919 241.88 378.436 237.107C405.223 200.307 433.419 167.089 461.615 137.848ZM698.666 380.524C709.139 354.068 718.404 327.613 725.856 301.953C699.472 295.587 671.88 290.416 643.281 286.238C653.15 301.356 663.018 316.871 672.283 332.785C681.749 348.698 690.409 364.611 698.666 380.524ZM585.075 589.783C601.792 566.112 617.904 540.651 633.613 513.797C648.719 487.739 662.615 461.085 675.304 434.43C662.615 407.775 648.719 381.32 633.412 355.262C617.703 328.607 601.389 303.345 584.672 279.674C554.865 277.287 524.453 275.895 494.041 275.895C463.428 275.895 433.016 277.287 403.007 279.873C386.291 303.544 370.178 329.005 354.469 355.859C339.364 381.917 325.266 408.571 312.779 435.226C325.467 461.88 339.364 488.336 354.67 514.394C370.38 541.048 386.693 566.311 403.41 589.982C433.218 592.369 463.629 593.761 494.041 593.761C524.654 593.761 555.066 592.368 585.075 589.783ZM726.46 567.106C718.807 541.247 709.542 514.593 698.666 487.938C690.409 503.851 681.749 519.963 672.484 535.877C663.22 551.989 653.351 567.703 643.482 583.02C672.283 578.842 700.076 573.472 726.46 567.106ZM438.454 636.528C456.983 659.801 475.714 681.085 494.444 700.18C512.973 681.085 531.704 659.801 549.83 636.528C531.502 637.522 512.772 637.92 493.84 637.92C475.109 637.92 456.58 637.323 438.454 636.528ZM262.025 567.305C288.409 573.671 316.001 578.842 344.6 583.02C334.732 567.902 325.064 552.387 315.598 536.473C306.132 520.56 297.472 504.647 289.214 488.734C278.742 515.19 269.477 541.645 262.025 567.305ZM549.427 232.73C530.898 209.457 512.167 188.173 493.437 169.078C474.908 188.173 456.177 209.457 438.051 232.73C456.379 231.736 475.109 231.338 494.041 231.338C512.772 231.338 531.301 231.935 549.427 232.73ZM315.397 333.381C324.661 317.269 334.53 301.555 344.399 286.238C315.598 290.416 287.805 295.786 261.421 301.953C269.074 327.812 278.339 354.466 289.214 381.121C297.472 365.208 306.132 349.295 315.397 333.381ZM44.7114 434.629C44.7114 465.859 90.8327 505.244 162.129 535.28C179.651 542.64 198.583 549.403 218.522 555.569C229.801 516.781 244.704 476.401 263.234 435.027C244.503 393.454 229.398 352.875 217.918 313.888C198.382 320.054 179.45 326.618 162.129 333.978C90.8327 363.815 44.7114 403.399 44.7114 434.629ZM240.475 668.951C231.21 744.936 243.093 804.014 270.484 819.529C276.526 822.911 284.179 824.701 293.243 824.9C335.134 824.9 396.764 791.88 462.421 731.609C434.023 702.368 405.827 668.951 378.637 632.151C333.322 627.378 290.222 620.018 250.747 610.47C246.316 630.56 242.69 650.253 240.475 668.951ZM718.807 818.734C745.996 803.019 757.678 743.942 748.212 667.956C745.996 649.457 742.371 630.162 737.739 610.072C698.264 619.819 655.164 627.179 609.646 631.953C582.86 668.752 554.664 701.971 526.467 731.211C592.124 791.084 653.955 823.905 695.645 823.905C704.91 823.905 712.765 822.314 718.807 818.734ZM769.963 555.37C789.499 549.204 808.431 542.64 825.752 535.28C897.048 505.443 943.169 465.859 943.371 434.629C943.371 403.399 897.25 364.014 825.953 333.978C808.23 326.618 789.298 319.855 769.359 313.689C758.08 352.477 743.177 392.857 724.647 434.231C743.378 475.804 758.483 516.383 769.963 555.37ZM585.881 434.63C585.881 484.835 544.673 525.534 493.84 525.534C443.007 525.534 401.799 484.835 401.799 434.63C401.799 384.425 443.007 343.726 493.84 343.726C544.673 343.726 585.881 384.425 585.881 434.63Z" fill="#1F2729"/>
</svg>
